# Blender 3.4.1
# www.blender.org
mtllib baseplate.mtl
o Cube.001
v -0.343513 -4.579743 2.564686
v -0.343513 1.592256 2.564686
v -0.343513 -4.579743 -1.003492
v -0.343513 1.592256 -1.003492
v 3.620883 -4.579743 2.564686
v 3.620883 1.592256 2.564686
v 3.620883 -4.579743 -1.003492
v 3.620883 1.592256 -1.003492
vn -1.0000 -0.0000 -0.0000
vn -0.0000 -0.0000 -1.0000
vn 1.0000 -0.0000 -0.0000
vn -0.0000 -0.0000 1.0000
vn -0.0000 -1.0000 -0.0000
vn -0.0000 1.0000 -0.0000
vt 0.375000 0.000000
vt 0.375000 1.000000
vt 0.125000 0.750000
vt 0.625000 0.000000
vt 0.625000 1.000000
vt 0.875000 0.750000
vt 0.375000 0.250000
vt 0.125000 0.500000
vt 0.625000 0.250000
vt 0.875000 0.500000
vt 0.375000 0.750000
vt 0.625000 0.750000
vt 0.375000 0.500000
vt 0.625000 0.500000
s 0
f 1/1/1 2/4/1 4/9/1 3/7/1
f 3/7/2 4/9/2 8/14/2 7/13/2
f 7/13/3 8/14/3 6/12/3 5/11/3
f 5/11/4 6/12/4 2/5/4 1/2/4
f 3/8/5 7/13/5 5/11/5 1/3/5
f 8/14/6 4/10/6 2/6/6 6/12/6
o Cube.006
v 3.513183 1.694987 1.780597
v 3.513183 1.804626 1.780597
v 3.513183 1.694987 -0.219403
v 3.513183 1.804626 -0.219403
v 2.700005 1.694987 1.780597
v 2.700005 1.804626 1.780597
v 2.700005 1.694987 -0.219403
v 2.700005 1.804626 -0.219403
vn 1.0000 -0.0000 -0.0000
vn -0.0000 -0.0000 -1.0000
vn -1.0000 -0.0000 -0.0000
vn -0.0000 -0.0000 1.0000
vn -0.0000 -1.0000 -0.0000
vn -0.0000 1.0000 -0.0000
vt 0.375000 0.000000
vt 0.375000 1.000000
vt 0.125000 0.750000
vt 0.625000 0.000000
vt 0.625000 1.000000
vt 0.875000 0.750000
vt 0.375000 0.250000
vt 0.125000 0.500000
vt 0.625000 0.250000
vt 0.875000 0.500000
vt 0.375000 0.750000
vt 0.625000 0.750000
vt 0.375000 0.500000
vt 0.625000 0.500000
s 0
f 9/15/7 11/21/7 12/23/7 10/18/7
f 11/21/8 15/27/8 16/28/8 12/23/8
f 15/27/9 13/25/9 14/26/9 16/28/9
f 13/25/10 9/16/10 10/19/10 14/26/10
f 11/22/11 9/17/11 13/25/11 15/27/11
f 16/28/12 14/26/12 10/20/12 12/24/12
o Cube.007
v 2.610078 2.147990 1.780597
v 2.610078 2.256206 1.780597
v 2.610078 2.147990 -0.219403
v 2.610078 2.256206 -0.219403
v 1.796900 2.147990 1.780597
v 1.796900 2.256206 1.780597
v 1.796900 2.147990 -0.219403
v 1.796900 2.256206 -0.219403
vn 1.0000 -0.0000 -0.0000
vn -0.0000 -0.0000 -1.0000
vn -1.0000 -0.0000 -0.0000
vn -0.0000 -0.0000 1.0000
vn -0.0000 -1.0000 -0.0000
vn -0.0000 1.0000 -0.0000
vt 0.375000 0.000000
vt 0.375000 1.000000
vt 0.125000 0.750000
vt 0.625000 0.000000
vt 0.625000 1.000000
vt 0.875000 0.750000
vt 0.375000 0.250000
vt 0.125000 0.500000
vt 0.625000 0.250000
vt 0.875000 0.500000
vt 0.375000 0.750000
vt 0.625000 0.750000
vt 0.375000 0.500000
vt 0.625000 0.500000
s 0
f 17/29/13 19/35/13 20/37/13 18/32/13
f 19/35/14 23/41/14 24/42/14 20/37/14
f 23/41/15 21/39/15 22/40/15 24/42/15
f 21/39/16 17/30/16 18/33/16 22/40/16
f 19/36/17 17/31/17 21/39/17 23/41/17
f 24/42/18 22/40/18 18/34/18 20/38/18
o Cube.008
v 1.646613 2.613895 1.780597
v 1.646613 2.747331 1.780597
v 1.646613 2.613895 -0.219403
v 1.646613 2.747331 -0.219403
v 0.833435 2.613895 1.780597
v 0.833435 2.747331 1.780597
v 0.833435 2.613895 -0.219403
v 0.833435 2.747331 -0.219403
vn 1.0000 -0.0000 -0.0000
vn -0.0000 -0.0000 -1.0000
vn -1.0000 -0.0000 -0.0000
vn -0.0000 -0.0000 1.0000
vn -0.0000 -1.0000 -0.0000
vn -0.0000 1.0000 -0.0000
vt 0.375000 0.000000
vt 0.375000 1.000000
vt 0.125000 0.750000
vt 0.625000 0.000000
vt 0.625000 1.000000
vt 0.875000 0.750000
vt 0.375000 0.250000
vt 0.125000 0.500000
vt 0.625000 0.250000
vt 0.875000 0.500000
vt 0.375000 0.750000
vt 0.625000 0.750000
vt 0.375000 0.500000
vt 0.625000 0.500000
s 0
f 25/43/19 27/49/19 28/51/19 26/46/19
f 27/49/20 31/55/20 32/56/20 28/51/20
f 31/55/21 29/53/21 30/54/21 32/56/21
f 29/53/22 25/44/22 26/47/22 30/54/22
f 27/50/23 25/45/23 29/53/23 31/55/23
f 32/56/24 30/54/24 26/48/24 28/52/24
o Cube.002
v -0.346790 -3.033204 1.780597
v -0.346790 3.776037 1.780597
v -0.346790 -3.033204 -0.219403
v -0.346790 3.776037 -0.219403
v -1.811035 -3.033204 1.780597
v -1.811035 3.776037 1.780597
v -1.811035 -3.033204 -0.219403
v -1.811035 3.776037 -0.219403
vn 1.0000 -0.0000 -0.0000
vn -0.0000 -0.0000 -1.0000
vn -1.0000 -0.0000 -0.0000
vn -0.0000 -0.0000 1.0000
vn -0.0000 -1.0000 -0.0000
vn -0.0000 1.0000 -0.0000
vt 0.375000 0.000000
vt 0.375000 1.000000
vt 0.125000 0.750000
vt 0.625000 0.000000
vt 0.625000 1.000000
vt 0.875000 0.750000
vt 0.375000 0.250000
vt 0.125000 0.500000
vt 0.625000 0.250000
vt 0.875000 0.500000
vt 0.375000 0.750000
vt 0.625000 0.750000
vt 0.375000 0.500000
vt 0.625000 0.500000
s 0
f 33/57/25 35/63/25 36/65/25 34/60/25
f 35/63/26 39/69/26 40/70/26 36/65/26
f 39/69/27 37/67/27 38/68/27 40/70/27
f 37/67/28 33/58/28 34/61/28 38/68/28
f 35/64/29 33/59/29 37/67/29 39/69/29
f 40/70/30 38/68/30 34/62/30 36/66/30
o Cube.003
v 4.304750 1.188992 1.780597
v 4.304750 1.298630 1.780597
v 4.304750 1.188992 -0.219403
v 4.304750 1.298630 -0.219403
v 3.491572 1.188992 1.780597
v 3.491572 1.298630 1.780597
v 3.491572 1.188992 -0.219403
v 3.491572 1.298630 -0.219403
vn 1.0000 -0.0000 -0.0000
vn -0.0000 -0.0000 -1.0000
vn -1.0000 -0.0000 -0.0000
vn -0.0000 -0.0000 1.0000
vn -0.0000 -1.0000 -0.0000
vn -0.0000 1.0000 -0.0000
vt 0.375000 0.000000
vt 0.375000 1.000000
vt 0.125000 0.750000
vt 0.625000 0.000000
vt 0.625000 1.000000
vt 0.875000 0.750000
vt 0.375000 0.250000
vt 0.125000 0.500000
vt 0.625000 0.250000
vt 0.875000 0.500000
vt 0.375000 0.750000
vt 0.625000 0.750000
vt 0.375000 0.500000
vt 0.625000 0.500000
s 0
f 41/71/31 43/77/31 44/79/31 42/74/31
f 43/77/32 47/83/32 48/84/32 44/79/32
f 47/83/33 45/81/33 46/82/33 48/84/33
f 45/81/34 41/72/34 42/75/34 46/82/34
f 43/78/35 41/73/35 45/81/35 47/83/35
f 48/84/36 46/82/36 42/76/36 44/80/36
o Cube.004
v 5.454132 0.809347 1.780597
v 5.454132 0.918985 1.780597
v 5.454132 0.809347 -0.219403
v 5.454132 0.918985 -0.219403
v 4.640954 0.809347 1.780597
v 4.640954 0.918985 1.780597
v 4.640954 0.809347 -0.219403
v 4.640954 0.918985 -0.219403
vn 1.0000 -0.0000 -0.0000
vn -0.0000 -0.0000 -1.0000
vn -1.0000 -0.0000 -0.0000
vn -0.0000 -0.0000 1.0000
vn -0.0000 -1.0000 -0.0000
vn -0.0000 1.0000 -0.0000
vt 0.375000 0.000000
vt 0.375000 1.000000
vt 0.125000 0.750000
vt 0.625000 0.000000
vt 0.625000 1.000000
vt 0.875000 0.750000
vt 0.375000 0.250000
vt 0.125000 0.500000
vt 0.625000 0.250000
vt 0.875000 0.500000
vt 0.375000 0.750000
vt 0.625000 0.750000
vt 0.375000 0.500000
vt 0.625000 0.500000
s 0
f 49/85/37 51/91/37 52/93/37 50/88/37
f 51/91/38 55/97/38 56/98/38 52/93/38
f 55/97/39 53/95/39 54/96/39 56/98/39
f 53/95/40 49/86/40 50/89/40 54/96/40
f 51/92/41 49/87/41 53/95/41 55/97/41
f 56/98/42 54/96/42 50/90/42 52/94/42
